# Wavefront OBJ file automatically generated by Tiled2Unity

# Vertices (Count = 336)
v 0 -3.2 0
v -3.2 -3.2 0
v -3.2 0 0
v 0 0 0
v -25.6 -3.2 0
v -28.8 -3.2 0
v -28.8 0 0
v -25.6 0 0
v -32 -3.2 0
v -32 0 0
v -35.2 -3.2 0
v -35.2 0 0
v -38.4 -3.2 0
v -38.4 0 0
v -60.8 -3.2 0
v -64 -3.2 0
v -64 0 0
v -60.8 0 0
v -16 -6.4 0
v -19.2 -6.4 0
v -19.2 -3.2 0
v -16 -3.2 0
v -25.6 -6.4 0
v -28.8 -6.4 0
v -32 -6.4 0
v -35.2 -6.4 0
v -38.4 -6.4 0
v -44.8 -6.4 0
v -48 -6.4 0
v -48 -3.2 0
v -44.8 -3.2 0
v -6.4 -9.6 0
v -9.6 -9.6 0
v -9.6 -6.4 0
v -6.4 -6.4 0
v -25.6 -9.6 0
v -28.8 -9.6 0
v -32 -9.6 0
v -35.2 -9.6 0
v -38.4 -9.6 0
v -54.4 -9.6 0
v -57.6 -9.6 0
v -57.6 -6.4 0
v -54.4 -6.4 0
v 0 -12.8 0
v -3.2 -12.8 0
v -3.2 -9.6 0
v 0 -9.6 0
v -22.4 -12.8 0
v -25.6 -12.8 0
v -22.4 -9.6 0
v -28.8 -12.8 0
v -32 -12.8 0
v -35.2 -12.8 0
v -38.4 -12.8 0
v -41.6 -12.8 0
v -41.6 -9.6 0
v -60.8 -12.8 0
v -64 -12.8 0
v -64 -9.6 0
v -60.8 -9.6 0
v -12.8 -16 0
v -16 -16 0
v -16 -12.8 0
v -12.8 -12.8 0
v -25.6 -16 0
v -28.8 -16 0
v -32 -16 0
v -35.2 -16 0
v -38.4 -16 0
v -48 -16 0
v -51.2 -16 0
v -51.2 -12.8 0
v -48 -12.8 0
v -6.4 -19.2 0
v -9.6 -19.2 0
v -9.6 -16 0
v -6.4 -16 0
v -25.6 -19.2 0
v -28.8 -19.2 0
v -32 -19.2 0
v -35.2 -19.2 0
v -38.4 -19.2 0
v -54.4 -19.2 0
v -57.6 -19.2 0
v -57.6 -16 0
v -54.4 -16 0
v -19.2 -22.4 0
v -22.4 -22.4 0
v -22.4 -19.2 0
v -19.2 -19.2 0
v -25.6 -22.4 0
v -28.8 -22.4 0
v -32 -22.4 0
v -35.2 -22.4 0
v -38.4 -22.4 0
v -41.6 -22.4 0
v -44.8 -22.4 0
v -44.8 -19.2 0
v -41.6 -19.2 0
v -12.8 -25.6 0
v -16 -25.6 0
v -16 -22.4 0
v -12.8 -22.4 0
v -25.6 -25.6 0
v -28.8 -25.6 0
v -32 -25.6 0
v -35.2 -25.6 0
v -38.4 -25.6 0
v -48 -25.6 0
v -51.2 -25.6 0
v -51.2 -22.4 0
v -48 -22.4 0
v -19.2 -28.8 0
v -22.4 -28.8 0
v -22.4 -25.6 0
v -19.2 -25.6 0
v -25.6 -28.8 0
v -28.8 -28.8 0
v -32 -28.8 0
v -35.2 -28.8 0
v -38.4 -28.8 0
v -41.6 -28.8 0
v -44.8 -28.8 0
v -44.8 -25.6 0
v -41.6 -25.6 0
v -6.4 -32 0
v -9.6 -32 0
v -9.6 -28.8 0
v -6.4 -28.8 0
v -25.6 -32 0
v -28.8 -32 0
v -32 -32 0
v -35.2 -32 0
v -38.4 -32 0
v -54.4 -32 0
v -57.6 -32 0
v -57.6 -28.8 0
v -54.4 -28.8 0
v -12.8 -35.2 0
v -16 -35.2 0
v -16 -32 0
v -12.8 -32 0
v -25.6 -35.2 0
v -28.8 -35.2 0
v -32 -35.2 0
v -35.2 -35.2 0
v -38.4 -35.2 0
v -48 -35.2 0
v -51.2 -35.2 0
v -51.2 -32 0
v -48 -32 0
v 0 -38.4 0
v -3.2 -38.4 0
v -3.2 -35.2 0
v 0 -35.2 0
v -25.6 -38.4 0
v -28.8 -38.4 0
v -32 -38.4 0
v -35.2 -38.4 0
v -38.4 -38.4 0
v -60.8 -38.4 0
v -64 -38.4 0
v -64 -35.2 0
v -60.8 -35.2 0
v -6.4 -41.6 0
v -9.6 -41.6 0
v -9.6 -38.4 0
v -6.4 -38.4 0
v -22.4 -41.6 0
v -25.6 -41.6 0
v -22.4 -38.4 0
v -28.8 -41.6 0
v -32 -41.6 0
v -35.2 -41.6 0
v -38.4 -41.6 0
v -41.6 -41.6 0
v -41.6 -38.4 0
v -54.4 -41.6 0
v -57.6 -41.6 0
v -57.6 -38.4 0
v -54.4 -38.4 0
v -25.6 -44.8 0
v -28.8 -44.8 0
v -32 -44.8 0
v -35.2 -44.8 0
v -38.4 -44.8 0
v 0 -48 0
v -3.2 -48 0
v -3.2 -44.8 0
v 0 -44.8 0
v -16 -48 0
v -19.2 -48 0
v -19.2 -44.8 0
v -16 -44.8 0
v -25.6 -48 0
v -28.8 -48 0
v -32 -48 0
v -35.2 -48 0
v -38.4 -48 0
v -44.8 -48 0
v -48 -48 0
v -48 -44.8 0
v -44.8 -44.8 0
v -60.8 -48 0
v -64 -48 0
v -64 -44.8 0
v -60.8 -44.8 0
v -6.4 -3.2 0
v -6.4 0 0
v -9.6 -3.2 0
v -9.6 0 0
v -12.8 -3.2 0
v -12.8 0 0
v -16 0 0
v -19.2 0 0
v -22.4 -3.2 0
v -22.4 0 0
v -41.6 -3.2 0
v -41.6 0 0
v -44.8 0 0
v -48 0 0
v -51.2 -3.2 0
v -51.2 0 0
v -54.4 -3.2 0
v -54.4 0 0
v -57.6 -3.2 0
v -57.6 0 0
v 0 -6.4 0
v -3.2 -6.4 0
v -12.8 -6.4 0
v -22.4 -6.4 0
v -41.6 -6.4 0
v -51.2 -6.4 0
v -60.8 -6.4 0
v -64 -6.4 0
v -12.8 -9.6 0
v -16 -9.6 0
v -19.2 -9.6 0
v -44.8 -9.6 0
v -48 -9.6 0
v -51.2 -9.6 0
v -6.4 -12.8 0
v -9.6 -12.8 0
v -19.2 -12.8 0
v -44.8 -12.8 0
v -54.4 -12.8 0
v -57.6 -12.8 0
v 0 -16 0
v -3.2 -16 0
v -19.2 -16 0
v -22.4 -16 0
v -41.6 -16 0
v -44.8 -16 0
v -60.8 -16 0
v -64 -16 0
v 0 -19.2 0
v -3.2 -19.2 0
v -12.8 -19.2 0
v -16 -19.2 0
v -48 -19.2 0
v -51.2 -19.2 0
v -60.8 -19.2 0
v -64 -19.2 0
v 0 -22.4 0
v -3.2 -22.4 0
v -6.4 -22.4 0
v -9.6 -22.4 0
v -54.4 -22.4 0
v -57.6 -22.4 0
v -60.8 -22.4 0
v -64 -22.4 0
v 0 -25.6 0
v -3.2 -25.6 0
v -6.4 -25.6 0
v -9.6 -25.6 0
v -54.4 -25.6 0
v -57.6 -25.6 0
v -60.8 -25.6 0
v -64 -25.6 0
v 0 -28.8 0
v -3.2 -28.8 0
v -12.8 -28.8 0
v -16 -28.8 0
v -48 -28.8 0
v -51.2 -28.8 0
v -60.8 -28.8 0
v -64 -28.8 0
v 0 -32 0
v -3.2 -32 0
v -19.2 -32 0
v -22.4 -32 0
v -41.6 -32 0
v -44.8 -32 0
v -60.8 -32 0
v -64 -32 0
v -6.4 -35.2 0
v -9.6 -35.2 0
v -19.2 -35.2 0
v -22.4 -35.2 0
v -41.6 -35.2 0
v -44.8 -35.2 0
v -54.4 -35.2 0
v -57.6 -35.2 0
v -12.8 -38.4 0
v -16 -38.4 0
v -19.2 -38.4 0
v -44.8 -38.4 0
v -48 -38.4 0
v -51.2 -38.4 0
v 0 -41.6 0
v -3.2 -41.6 0
v -12.8 -41.6 0
v -16 -41.6 0
v -19.2 -41.6 0
v -44.8 -41.6 0
v -48 -41.6 0
v -51.2 -41.6 0
v -60.8 -41.6 0
v -64 -41.6 0
v -6.4 -44.8 0
v -9.6 -44.8 0
v -12.8 -44.8 0
v -22.4 -44.8 0
v -41.6 -44.8 0
v -51.2 -44.8 0
v -54.4 -44.8 0
v -57.6 -44.8 0
v -6.4 -48 0
v -9.6 -48 0
v -12.8 -48 0
v -22.4 -48 0
v -41.6 -48 0
v -51.2 -48 0
v -54.4 -48 0
v -57.6 -48 0

# Texture cooridinates (Count = 68)
vt 0.0001220703 0.9334554
vt 0.04987793 0.9334554
vt 0.04987793 0.9998779
vt 0.0001220703 0.9998779
vt 0.4001221 0.9334554
vt 0.4498779 0.9334554
vt 0.4498779 0.9998779
vt 0.4001221 0.9998779
vt 0.4501221 0.9334554
vt 0.4998779 0.9334554
vt 0.4998779 0.9998779
vt 0.4501221 0.9998779
vt 0.5501221 0.9334554
vt 0.599878 0.9334554
vt 0.599878 0.9998779
vt 0.5501221 0.9998779
vt 0.4001221 0.8667887
vt 0.4498779 0.8667887
vt 0.4498779 0.9332113
vt 0.4001221 0.9332113
vt 0.4501221 0.8667887
vt 0.4998779 0.8667887
vt 0.4998779 0.9332113
vt 0.4501221 0.9332113
vt 0.5501221 0.8667887
vt 0.599878 0.8667887
vt 0.599878 0.9332113
vt 0.5501221 0.9332113
vt 0.4001221 0.8001221
vt 0.4498779 0.8001221
vt 0.4498779 0.8665446
vt 0.4001221 0.8665446
vt 0.4501221 0.8001221
vt 0.4998779 0.8001221
vt 0.4998779 0.8665446
vt 0.4501221 0.8665446
vt 0.5501221 0.8001221
vt 0.599878 0.8001221
vt 0.599878 0.8665446
vt 0.5501221 0.8665446
vt 0.2001221 0.9445665
vt 0.2498779 0.9445665
vt 0.2498779 0.9998779
vt 0.2001221 0.9998779
vt 0.5001221 0.7223443
vt 0.5498779 0.7223443
vt 0.5498779 0.7776557
vt 0.5001221 0.7776557
vt 0.2501221 0.889011
vt 0.2998779 0.889011
vt 0.2998779 0.9443223
vt 0.2501221 0.9443223
vt 0.3001221 0.889011
vt 0.3498779 0.889011
vt 0.3498779 0.9443223
vt 0.3001221 0.9443223
vt 0.2501221 0.8334554
vt 0.2998779 0.8334554
vt 0.2998779 0.8887668
vt 0.2501221 0.8887668
vt 0.3001221 0.8334554
vt 0.3498779 0.8334554
vt 0.3498779 0.8887668
vt 0.3001221 0.8887668
vt 0.8501221 0.2223443
vt 0.8998779 0.2223443
vt 0.8998779 0.2776557
vt 0.8501221 0.2776557

# Normal
vn 0 0 -1

# Groups (Count = 1)

g mesh_0001
f 1/1/1 2/2/1 3/3/1 4/4/1
f 5/5/1 6/6/1 7/7/1 8/8/1
f 6/9/1 9/10/1 10/11/1 7/12/1
f 9/9/1 11/10/1 12/11/1 10/12/1
f 11/13/1 13/14/1 14/15/1 12/16/1
f 15/1/1 16/2/1 17/3/1 18/4/1
f 19/1/1 20/2/1 21/3/1 22/4/1
f 23/17/1 24/18/1 6/19/1 5/20/1
f 24/21/1 25/22/1 9/23/1 6/24/1
f 25/21/1 26/22/1 11/23/1 9/24/1
f 26/25/1 27/26/1 13/27/1 11/28/1
f 28/1/1 29/2/1 30/3/1 31/4/1
f 32/1/1 33/2/1 34/3/1 35/4/1
f 36/29/1 37/30/1 24/31/1 23/32/1
f 37/33/1 38/34/1 25/35/1 24/36/1
f 38/33/1 39/34/1 26/35/1 25/36/1
f 39/37/1 40/38/1 27/39/1 26/40/1
f 41/1/1 42/2/1 43/3/1 44/4/1
f 45/1/1 46/2/1 47/3/1 48/4/1
f 49/1/1 50/2/1 36/3/1 51/4/1
f 50/5/1 52/6/1 37/7/1 36/8/1
f 52/9/1 53/10/1 38/11/1 37/12/1
f 53/9/1 54/10/1 39/11/1 38/12/1
f 54/13/1 55/14/1 40/15/1 39/16/1
f 55/1/1 56/2/1 57/3/1 40/4/1
f 58/1/1 59/2/1 60/3/1 61/4/1
f 62/1/1 63/2/1 64/3/1 65/4/1
f 66/5/1 67/6/1 52/7/1 50/8/1
f 67/9/1 68/10/1 53/11/1 52/12/1
f 68/9/1 69/10/1 54/11/1 53/12/1
f 69/13/1 70/14/1 55/15/1 54/16/1
f 71/1/1 72/2/1 73/3/1 74/4/1
f 75/1/1 76/2/1 77/3/1 78/4/1
f 79/5/1 80/6/1 67/7/1 66/8/1
f 80/9/1 81/10/1 68/11/1 67/12/1
f 81/9/1 82/10/1 69/11/1 68/12/1
f 82/13/1 83/14/1 70/15/1 69/16/1
f 84/1/1 85/2/1 86/3/1 87/4/1
f 88/1/1 89/2/1 90/3/1 91/4/1
f 92/17/1 93/18/1 80/19/1 79/20/1
f 93/21/1 94/22/1 81/23/1 80/24/1
f 94/21/1 95/22/1 82/23/1 81/24/1
f 95/25/1 96/26/1 83/27/1 82/28/1
f 97/1/1 98/2/1 99/3/1 100/4/1
f 101/1/1 102/2/1 103/3/1 104/4/1
f 105/29/1 106/30/1 93/31/1 92/32/1
f 106/33/1 107/34/1 94/35/1 93/36/1
f 107/33/1 108/34/1 95/35/1 94/36/1
f 108/37/1 109/38/1 96/39/1 95/40/1
f 110/1/1 111/2/1 112/3/1 113/4/1
f 114/1/1 115/2/1 116/3/1 117/4/1
f 118/5/1 119/6/1 106/7/1 105/8/1
f 119/9/1 120/10/1 107/11/1 106/12/1
f 120/9/1 121/10/1 108/11/1 107/12/1
f 121/13/1 122/14/1 109/15/1 108/16/1
f 123/1/1 124/2/1 125/3/1 126/4/1
f 127/1/1 128/2/1 129/3/1 130/4/1
f 131/5/1 132/6/1 119/7/1 118/8/1
f 132/9/1 133/10/1 120/11/1 119/12/1
f 133/9/1 134/10/1 121/11/1 120/12/1
f 134/13/1 135/14/1 122/15/1 121/16/1
f 136/1/1 137/2/1 138/3/1 139/4/1
f 140/1/1 141/2/1 142/3/1 143/4/1
f 144/17/1 145/18/1 132/19/1 131/20/1
f 145/21/1 146/22/1 133/23/1 132/24/1
f 146/21/1 147/22/1 134/23/1 133/24/1
f 147/25/1 148/26/1 135/27/1 134/28/1
f 149/1/1 150/2/1 151/3/1 152/4/1
f 153/1/1 154/2/1 155/3/1 156/4/1
f 157/29/1 158/30/1 145/31/1 144/32/1
f 158/33/1 159/34/1 146/35/1 145/36/1
f 159/33/1 160/34/1 147/35/1 146/36/1
f 160/37/1 161/38/1 148/39/1 147/40/1
f 162/1/1 163/2/1 164/3/1 165/4/1
f 166/1/1 167/2/1 168/3/1 169/4/1
f 170/1/1 171/2/1 157/3/1 172/4/1
f 171/5/1 173/6/1 158/7/1 157/8/1
f 173/9/1 174/10/1 159/11/1 158/12/1
f 174/9/1 175/10/1 160/11/1 159/12/1
f 175/13/1 176/14/1 161/15/1 160/16/1
f 176/1/1 177/2/1 178/3/1 161/4/1
f 179/1/1 180/2/1 181/3/1 182/4/1
f 183/5/1 184/6/1 173/7/1 171/8/1
f 184/9/1 185/10/1 174/11/1 173/12/1
f 185/9/1 186/10/1 175/11/1 174/12/1
f 186/13/1 187/14/1 176/15/1 175/16/1
f 188/1/1 189/2/1 190/3/1 191/4/1
f 192/1/1 193/2/1 194/3/1 195/4/1
f 196/5/1 197/6/1 184/7/1 183/8/1
f 197/9/1 198/10/1 185/11/1 184/12/1
f 198/9/1 199/10/1 186/11/1 185/12/1
f 199/13/1 200/14/1 187/15/1 186/16/1
f 201/1/1 202/2/1 203/3/1 204/4/1
f 205/1/1 206/2/1 207/3/1 208/4/1

g mesh_0002
f 2/41/1 209/42/1 210/43/1 3/44/1
f 209/41/1 211/42/1 212/43/1 210/44/1
f 211/45/1 213/46/1 214/47/1 212/48/1
f 213/41/1 22/42/1 215/43/1 214/44/1
f 22/41/1 21/42/1 216/43/1 215/44/1
f 21/41/1 217/42/1 218/43/1 216/44/1
f 217/41/1 5/42/1 8/43/1 218/44/1
f 13/41/1 219/42/1 220/43/1 14/44/1
f 219/41/1 31/42/1 221/43/1 220/44/1
f 31/41/1 30/42/1 222/43/1 221/44/1
f 30/41/1 223/42/1 224/43/1 222/44/1
f 223/45/1 225/46/1 226/47/1 224/48/1
f 225/41/1 227/42/1 228/43/1 226/44/1
f 227/41/1 15/42/1 18/43/1 228/44/1
f 229/41/1 230/42/1 2/43/1 1/44/1
f 230/41/1 35/42/1 209/43/1 2/44/1
f 35/41/1 34/42/1 211/43/1 209/44/1
f 34/41/1 231/42/1 213/43/1 211/44/1
f 231/41/1 19/42/1 22/43/1 213/44/1
f 20/41/1 232/42/1 217/43/1 21/44/1
f 232/41/1 23/42/1 5/43/1 217/44/1
f 27/41/1 233/42/1 219/43/1 13/44/1
f 233/41/1 28/42/1 31/43/1 219/44/1
f 29/41/1 234/42/1 223/43/1 30/44/1
f 234/41/1 44/42/1 225/43/1 223/44/1
f 44/41/1 43/42/1 227/43/1 225/44/1
f 43/41/1 235/42/1 15/43/1 227/44/1
f 235/41/1 236/42/1 16/43/1 15/44/1
f 48/41/1 47/42/1 230/43/1 229/44/1
f 47/41/1 32/42/1 35/43/1 230/44/1
f 33/41/1 237/42/1 231/43/1 34/44/1
f 237/49/1 238/50/1 19/51/1 231/52/1
f 238/53/1 239/54/1 20/55/1 19/56/1
f 239/41/1 51/42/1 232/43/1 20/44/1
f 51/41/1 36/42/1 23/43/1 232/44/1
f 40/41/1 57/42/1 233/43/1 27/44/1
f 57/41/1 240/42/1 28/43/1 233/44/1
f 240/49/1 241/50/1 29/51/1 28/52/1
f 241/53/1 242/54/1 234/55/1 29/56/1
f 242/41/1 41/42/1 44/43/1 234/44/1
f 42/41/1 61/42/1 235/43/1 43/44/1
f 61/41/1 60/42/1 236/43/1 235/44/1
f 46/41/1 243/42/1 32/43/1 47/44/1
f 243/45/1 244/46/1 33/47/1 32/48/1
f 244/41/1 65/42/1 237/43/1 33/44/1
f 65/57/1 64/58/1 238/59/1 237/60/1
f 64/61/1 245/62/1 239/63/1 238/64/1
f 245/41/1 49/42/1 51/43/1 239/44/1
f 56/41/1 246/42/1 240/43/1 57/44/1
f 246/57/1 74/58/1 241/59/1 240/60/1
f 74/61/1 73/62/1 242/63/1 241/64/1
f 73/41/1 247/42/1 41/43/1 242/44/1
f 247/45/1 248/46/1 42/47/1 41/48/1
f 248/41/1 58/42/1 61/43/1 42/44/1
f 249/41/1 250/42/1 46/43/1 45/44/1
f 250/41/1 78/42/1 243/43/1 46/44/1
f 78/41/1 77/42/1 244/43/1 243/44/1
f 77/41/1 62/42/1 65/43/1 244/44/1
f 63/41/1 251/42/1 245/43/1 64/44/1
f 251/41/1 252/42/1 49/43/1 245/44/1
f 252/41/1 66/42/1 50/43/1 49/44/1
f 70/41/1 253/42/1 56/43/1 55/44/1
f 253/41/1 254/42/1 246/43/1 56/44/1
f 254/41/1 71/42/1 74/43/1 246/44/1
f 72/41/1 87/42/1 247/43/1 73/44/1
f 87/41/1 86/42/1 248/43/1 247/44/1
f 86/41/1 255/42/1 58/43/1 248/44/1
f 255/41/1 256/42/1 59/43/1 58/44/1
f 257/41/1 258/42/1 250/43/1 249/44/1
f 258/41/1 75/42/1 78/43/1 250/44/1
f 76/41/1 259/42/1 62/43/1 77/44/1
f 259/65/1 260/66/1 63/67/1 62/68/1
f 260/41/1 91/42/1 251/43/1 63/44/1
f 91/41/1 90/42/1 252/43/1 251/44/1
f 90/41/1 79/42/1 66/43/1 252/44/1
f 83/41/1 100/42/1 253/43/1 70/44/1
f 100/41/1 99/42/1 254/43/1 253/44/1
f 99/41/1 261/42/1 71/43/1 254/44/1
f 261/65/1 262/66/1 72/67/1 71/68/1
f 262/41/1 84/42/1 87/43/1 72/44/1
f 85/41/1 263/42/1 255/43/1 86/44/1
f 263/41/1 264/42/1 256/43/1 255/44/1
f 265/41/1 266/42/1 258/43/1 257/44/1
f 266/41/1 267/42/1 75/43/1 258/44/1
f 267/41/1 268/42/1 76/43/1 75/44/1
f 268/41/1 104/42/1 259/43/1 76/44/1
f 104/41/1 103/42/1 260/43/1 259/44/1
f 103/41/1 88/42/1 91/43/1 260/44/1
f 89/41/1 92/42/1 79/43/1 90/44/1
f 96/41/1 97/42/1 100/43/1 83/44/1
f 98/41/1 113/42/1 261/43/1 99/44/1
f 113/41/1 112/42/1 262/43/1 261/44/1
f 112/41/1 269/42/1 84/43/1 262/44/1
f 269/41/1 270/42/1 85/43/1 84/44/1
f 270/41/1 271/42/1 263/43/1 85/44/1
f 271/41/1 272/42/1 264/43/1 263/44/1
f 273/41/1 274/42/1 266/43/1 265/44/1
f 274/41/1 275/42/1 267/43/1 266/44/1
f 275/41/1 276/42/1 268/43/1 267/44/1
f 276/41/1 101/42/1 104/43/1 268/44/1
f 102/41/1 117/42/1 88/43/1 103/44/1
f 117/41/1 116/42/1 89/43/1 88/44/1
f 116/41/1 105/42/1 92/43/1 89/44/1
f 109/41/1 126/42/1 97/43/1 96/44/1
f 126/41/1 125/42/1 98/43/1 97/44/1
f 125/41/1 110/42/1 113/43/1 98/44/1
f 111/41/1 277/42/1 269/43/1 112/44/1
f 277/41/1 278/42/1 270/43/1 269/44/1
f 278/41/1 279/42/1 271/43/1 270/44/1
f 279/41/1 280/42/1 272/43/1 271/44/1
f 281/41/1 282/42/1 274/43/1 273/44/1
f 282/41/1 130/42/1 275/43/1 274/44/1
f 130/41/1 129/42/1 276/43/1 275/44/1
f 129/41/1 283/42/1 101/43/1 276/44/1
f 283/41/1 284/42/1 102/43/1 101/44/1
f 284/41/1 114/42/1 117/43/1 102/44/1
f 115/41/1 118/42/1 105/43/1 116/44/1
f 122/41/1 123/42/1 126/43/1 109/44/1
f 124/41/1 285/42/1 110/43/1 125/44/1
f 285/41/1 286/42/1 111/43/1 110/44/1
f 286/41/1 139/42/1 277/43/1 111/44/1
f 139/41/1 138/42/1 278/43/1 277/44/1
f 138/41/1 287/42/1 279/43/1 278/44/1
f 287/41/1 288/42/1 280/43/1 279/44/1
f 289/41/1 290/42/1 282/43/1 281/44/1
f 290/41/1 127/42/1 130/43/1 282/44/1
f 128/41/1 143/42/1 283/43/1 129/44/1
f 143/41/1 142/42/1 284/43/1 283/44/1
f 142/41/1 291/42/1 114/43/1 284/44/1
f 291/41/1 292/42/1 115/43/1 114/44/1
f 292/65/1 131/66/1 118/67/1 115/68/1
f 135/65/1 293/66/1 123/67/1 122/68/1
f 293/41/1 294/42/1 124/43/1 123/44/1
f 294/41/1 152/42/1 285/43/1 124/44/1
f 152/41/1 151/42/1 286/43/1 285/44/1
f 151/41/1 136/42/1 139/43/1 286/44/1
f 137/41/1 295/42/1 287/43/1 138/44/1
f 295/41/1 296/42/1 288/43/1 287/44/1
f 156/41/1 155/42/1 290/43/1 289/44/1
f 155/41/1 297/42/1 127/43/1 290/44/1
f 297/41/1 298/42/1 128/43/1 127/44/1
f 298/41/1 140/42/1 143/43/1 128/44/1
f 141/41/1 299/42/1 291/43/1 142/44/1
f 299/41/1 300/42/1 292/43/1 291/44/1
f 300/41/1 144/42/1 131/43/1 292/44/1
f 148/41/1 301/42/1 293/43/1 135/44/1
f 301/41/1 302/42/1 294/43/1 293/44/1
f 302/41/1 149/42/1 152/43/1 294/44/1
f 150/41/1 303/42/1 136/43/1 151/44/1
f 303/41/1 304/42/1 137/43/1 136/44/1
f 304/41/1 165/42/1 295/43/1 137/44/1
f 165/41/1 164/42/1 296/43/1 295/44/1
f 154/41/1 169/42/1 297/43/1 155/44/1
f 169/41/1 168/42/1 298/43/1 297/44/1
f 168/41/1 305/42/1 140/43/1 298/44/1
f 305/49/1 306/50/1 141/51/1 140/52/1
f 306/53/1 307/54/1 299/55/1 141/56/1
f 307/41/1 172/42/1 300/43/1 299/44/1
f 172/41/1 157/42/1 144/43/1 300/44/1
f 161/41/1 178/42/1 301/43/1 148/44/1
f 178/41/1 308/42/1 302/43/1 301/44/1
f 308/49/1 309/50/1 149/51/1 302/52/1
f 309/53/1 310/54/1 150/55/1 149/56/1
f 310/41/1 182/42/1 303/43/1 150/44/1
f 182/41/1 181/42/1 304/43/1 303/44/1
f 181/41/1 162/42/1 165/43/1 304/44/1
f 311/41/1 312/42/1 154/43/1 153/44/1
f 312/41/1 166/42/1 169/43/1 154/44/1
f 167/41/1 313/42/1 305/43/1 168/44/1
f 313/57/1 314/58/1 306/59/1 305/60/1
f 314/61/1 315/62/1 307/63/1 306/64/1
f 315/41/1 170/42/1 172/43/1 307/44/1
f 177/41/1 316/42/1 308/43/1 178/44/1
f 316/57/1 317/58/1 309/59/1 308/60/1
f 317/61/1 318/62/1 310/63/1 309/64/1
f 318/41/1 179/42/1 182/43/1 310/44/1
f 180/41/1 319/42/1 162/43/1 181/44/1
f 319/41/1 320/42/1 163/43/1 162/44/1
f 191/41/1 190/42/1 312/43/1 311/44/1
f 190/41/1 321/42/1 166/43/1 312/44/1
f 321/41/1 322/42/1 167/43/1 166/44/1
f 322/41/1 323/42/1 313/43/1 167/44/1
f 323/41/1 195/42/1 314/43/1 313/44/1
f 195/41/1 194/42/1 315/43/1 314/44/1
f 194/41/1 324/42/1 170/43/1 315/44/1
f 324/41/1 183/42/1 171/43/1 170/44/1
f 187/41/1 325/42/1 177/43/1 176/44/1
f 325/41/1 204/42/1 316/43/1 177/44/1
f 204/41/1 203/42/1 317/43/1 316/44/1
f 203/41/1 326/42/1 318/43/1 317/44/1
f 326/41/1 327/42/1 179/43/1 318/44/1
f 327/41/1 328/42/1 180/43/1 179/44/1
f 328/41/1 208/42/1 319/43/1 180/44/1
f 208/41/1 207/42/1 320/43/1 319/44/1
f 189/41/1 329/42/1 321/43/1 190/44/1
f 329/45/1 330/46/1 322/47/1 321/48/1
f 330/41/1 331/42/1 323/43/1 322/44/1
f 331/41/1 192/42/1 195/43/1 323/44/1
f 193/41/1 332/42/1 324/43/1 194/44/1
f 332/41/1 196/42/1 183/43/1 324/44/1
f 200/41/1 333/42/1 325/43/1 187/44/1
f 333/41/1 201/42/1 204/43/1 325/44/1
f 202/41/1 334/42/1 326/43/1 203/44/1
f 334/41/1 335/42/1 327/43/1 326/44/1
f 335/45/1 336/46/1 328/47/1 327/48/1
f 336/41/1 205/42/1 208/43/1 328/44/1

